<svg width="64" height="30" viewBox="0 0 64 30" fill="none" xmlns="http://www.w3.org/2000/svg">
<path d="M20 13.75V8.75C20 7.42392 19.4732 6.15215 18.5355 5.21447C17.5979 4.27678 16.3261 3.75 15 3.75C13.6739 3.75 12.4021 4.27678 11.4645 5.21447C10.5268 6.15215 10 7.42392 10 8.75V13.75H20ZM6.25 11.25H23.75L25 26.25H5L6.25 11.25Z" stroke="#EF7474" stroke-width="2" stroke-linecap="round" stroke-linejoin="round"/>
<path d="M33.52 21.12C33.088 21.12 32.692 21.012 32.332 20.796C31.98 20.572 31.696 20.28 31.48 19.92C31.272 19.552 31.168 19.148 31.168 18.708V18.156C31.168 18.116 31.188 18.096 31.228 18.096H32.572C32.604 18.096 32.62 18.116 32.62 18.156V18.708C32.62 18.972 32.708 19.2 32.884 19.392C33.06 19.576 33.272 19.668 33.52 19.668C33.768 19.668 33.98 19.572 34.156 19.38C34.332 19.188 34.42 18.964 34.42 18.708C34.42 18.412 34.228 18.156 33.844 17.94C33.716 17.868 33.516 17.756 33.244 17.604C32.972 17.452 32.716 17.308 32.476 17.172C32.036 16.916 31.708 16.596 31.492 16.212C31.284 15.82 31.18 15.38 31.18 14.892C31.18 14.444 31.288 14.044 31.504 13.692C31.72 13.332 32.004 13.048 32.356 12.84C32.716 12.632 33.104 12.528 33.52 12.528C33.944 12.528 34.332 12.636 34.684 12.852C35.044 13.06 35.328 13.344 35.536 13.704C35.752 14.056 35.86 14.452 35.86 14.892V15.876C35.86 15.908 35.844 15.924 35.812 15.924H34.468C34.436 15.924 34.42 15.908 34.42 15.876L34.408 14.892C34.408 14.612 34.32 14.384 34.144 14.208C33.968 14.032 33.76 13.944 33.52 13.944C33.272 13.944 33.06 14.04 32.884 14.232C32.708 14.416 32.62 14.636 32.62 14.892C32.62 15.156 32.676 15.376 32.788 15.552C32.9 15.728 33.104 15.896 33.4 16.056C33.44 16.08 33.516 16.124 33.628 16.188C33.748 16.244 33.876 16.312 34.012 16.392C34.148 16.464 34.268 16.528 34.372 16.584C34.484 16.64 34.552 16.676 34.576 16.692C34.976 16.916 35.292 17.192 35.524 17.52C35.756 17.84 35.872 18.236 35.872 18.708C35.872 19.164 35.764 19.576 35.548 19.944C35.34 20.304 35.056 20.592 34.696 20.808C34.344 21.016 33.952 21.12 33.52 21.12ZM36.7546 21C36.7226 21 36.7066 20.98 36.7066 20.94L36.7186 12.696C36.7186 12.664 36.7386 12.648 36.7786 12.648H38.1106C38.1506 12.648 38.1706 12.664 38.1706 12.696L38.1586 15.96H39.9586V12.696C39.9586 12.664 39.9746 12.648 40.0066 12.648H41.3386C41.3786 12.648 41.3986 12.664 41.3986 12.696L41.4226 20.94C41.4226 20.98 41.4026 21 41.3626 21H40.0186C39.9786 21 39.9586 20.98 39.9586 20.94V17.412H38.1586V20.94C38.1586 20.98 38.1426 21 38.1106 21H36.7546ZM44.6219 21.12C44.1899 21.12 43.7939 21.012 43.4339 20.796C43.0819 20.572 42.7979 20.28 42.5819 19.92C42.3659 19.552 42.2579 19.148 42.2579 18.708L42.2699 14.904C42.2699 14.464 42.3739 14.064 42.5819 13.704C42.7979 13.344 43.0859 13.056 43.4459 12.84C43.8059 12.624 44.1979 12.516 44.6219 12.516C45.0539 12.516 45.4459 12.624 45.7979 12.84C46.1499 13.056 46.4299 13.344 46.6379 13.704C46.8539 14.064 46.9619 14.464 46.9619 14.904L46.9739 18.708C46.9739 19.148 46.8659 19.552 46.6499 19.92C46.4419 20.28 46.1579 20.572 45.7979 20.796C45.4459 21.012 45.0539 21.12 44.6219 21.12ZM44.6219 19.668C44.8619 19.668 45.0699 19.572 45.2459 19.38C45.4299 19.18 45.5219 18.956 45.5219 18.708L45.5099 14.904C45.5099 14.64 45.4259 14.416 45.2579 14.232C45.0899 14.048 44.8779 13.956 44.6219 13.956C44.3739 13.956 44.1619 14.048 43.9859 14.232C43.8099 14.408 43.7219 14.632 43.7219 14.904V18.708C43.7219 18.972 43.8099 19.2 43.9859 19.392C44.1619 19.576 44.3739 19.668 44.6219 19.668ZM47.9463 21C47.9063 21 47.8863 20.98 47.8863 20.94L47.9103 12.696C47.9103 12.664 47.9263 12.648 47.9583 12.648H50.2623C50.9983 12.648 51.5783 12.872 52.0023 13.32C52.4343 13.768 52.6503 14.376 52.6503 15.144C52.6503 15.712 52.5383 16.204 52.3143 16.62C52.0903 17.036 51.7983 17.356 51.4383 17.58C51.0783 17.804 50.6863 17.916 50.2623 17.916H49.3503V20.94C49.3503 20.98 49.3303 21 49.2903 21H47.9463ZM49.3503 16.464H50.2623C50.5183 16.464 50.7383 16.344 50.9223 16.104C51.1143 15.856 51.2103 15.536 51.2103 15.144C51.2103 14.832 51.1263 14.576 50.9583 14.376C50.7903 14.176 50.5583 14.076 50.2623 14.076L49.3503 14.088V16.464ZM53.2964 21C53.2564 21 53.2364 20.98 53.2364 20.94V19.584C53.2364 19.568 53.2444 19.552 53.2604 19.536L56.2244 15.468C56.2804 15.396 56.3244 15.304 56.3564 15.192C56.3964 15.072 56.4164 14.968 56.4164 14.88C56.4164 14.648 56.3324 14.436 56.1644 14.244C55.9964 14.044 55.7844 13.944 55.5284 13.944C55.2804 13.944 55.0684 14.04 54.8924 14.232C54.7244 14.416 54.6404 14.652 54.6404 14.94V15.528C54.6404 15.568 54.6204 15.588 54.5804 15.588H53.2364C53.2044 15.588 53.1884 15.568 53.1884 15.528V14.94C53.1884 14.492 53.2964 14.084 53.5124 13.716C53.7364 13.348 54.0244 13.056 54.3764 12.84C54.7364 12.624 55.1204 12.516 55.5284 12.516C55.9604 12.516 56.3524 12.628 56.7044 12.852C57.0564 13.068 57.3364 13.356 57.5444 13.716C57.7604 14.076 57.8684 14.464 57.8684 14.88C57.8684 15.144 57.8204 15.412 57.7244 15.684C57.6364 15.956 57.5124 16.196 57.3524 16.404L55.0724 19.536H57.7724C57.8044 19.536 57.8204 19.552 57.8204 19.584V20.94C57.8204 20.98 57.8044 21 57.7724 21H53.2964ZM60.7505 21C60.7185 21 60.7025 20.98 60.7025 20.94V19.536H58.1105C58.0785 19.536 58.0625 19.516 58.0625 19.476V18.156L60.6785 12.696C60.6945 12.664 60.7185 12.648 60.7505 12.648H62.1065C62.1305 12.648 62.1425 12.664 62.1425 12.696L62.1545 18.108H62.9945C63.0345 18.108 63.0545 18.128 63.0545 18.168V19.476C63.0545 19.516 63.0385 19.536 63.0065 19.536H62.1545V20.94C62.1545 20.98 62.1385 21 62.1065 21H60.7505ZM59.4785 18.108H60.7025V15.492L59.4785 18.108Z" fill="#EF7474"/>
</svg>
