<svg xmlns="http://www.w3.org/2000/svg">
<symbol id="search" width="1em" height="1em" viewBox="0 0 16 16" fill="none">
<g clip-path="url(#clip0)">
<path fill-rule="evenodd" clip-rule="evenodd" d="M10.442 10.442C10.5349 10.349 10.6452 10.2752 10.7666 10.2249C10.888 10.1746 11.0181 10.1487 11.1495 10.1487C11.2809 10.1487 11.411 10.1746 11.5324 10.2249C11.6538 10.2752 11.7641 10.349 11.857 10.442L15.707 14.292C15.8946 14.4795 16.0001 14.7338 16.0002 14.9991C16.0003 15.2644 15.895 15.5188 15.7075 15.7065C15.52 15.8941 15.2656 15.9996 15.0004 15.9997C14.7351 15.9998 14.4806 15.8945 14.293 15.707L10.443 11.857C10.35 11.7641 10.2763 11.6538 10.2259 11.5324C10.1756 11.411 10.1497 11.2809 10.1497 11.1495C10.1497 11.0181 10.1756 10.8879 10.2259 10.7665C10.2763 10.6451 10.35 10.5348 10.443 10.442H10.442Z" fill="currentColor"/>
<path fill-rule="evenodd" clip-rule="evenodd" d="M6.5 12C7.22227 12 7.93747 11.8577 8.60476 11.5813C9.27205 11.3049 9.87837 10.8998 10.3891 10.3891C10.8998 9.87837 11.3049 9.27205 11.5813 8.60476C11.8577 7.93747 12 7.22227 12 6.5C12 5.77773 11.8577 5.06253 11.5813 4.39524C11.3049 3.72795 10.8998 3.12163 10.3891 2.61091C9.87837 2.10019 9.27205 1.69506 8.60476 1.41866C7.93747 1.14226 7.22227 1 6.5 1C5.04131 1 3.64236 1.57946 2.61091 2.61091C1.57946 3.64236 1 5.04131 1 6.5C1 7.95869 1.57946 9.35764 2.61091 10.3891C3.64236 11.4205 5.04131 12 6.5 12V12ZM13 6.5C13 8.22391 12.3152 9.87721 11.0962 11.0962C9.87721 12.3152 8.22391 13 6.5 13C4.77609 13 3.12279 12.3152 1.90381 11.0962C0.684819 9.87721 0 8.22391 0 6.5C0 4.77609 0.684819 3.12279 1.90381 1.90381C3.12279 0.684819 4.77609 0 6.5 0C8.22391 0 9.87721 0.684819 11.0962 1.90381C12.3152 3.12279 13 4.77609 13 6.5V6.5Z" fill="currentColor"/>
</g>
<defs>
<clipPath id="clip0">
<rect width="16" height="16" fill="white"/>
</clipPath>
</defs>
</symbol>
<symbol id="cart" width="1em" height="1em" viewBox="0 0 24 24" fill="none">
<path d="M21.822 7.431C21.73 7.29808 21.6072 7.18943 21.464 7.11436C21.3209 7.0393 21.1616 7.00006 21 7H7.333L6.179 4.23C6.02769 3.86523 5.77147 3.55359 5.44282 3.33462C5.11418 3.11564 4.72791 2.99918 4.333 3H2V5H4.333L9.077 16.385C9.15299 16.5672 9.28118 16.7228 9.44542 16.8322C9.60967 16.9416 9.80263 17 10 17H18C18.417 17 18.79 16.741 18.937 16.352L21.937 8.352C21.9937 8.20063 22.0129 8.03776 21.9928 7.87735C21.9728 7.71695 21.9142 7.56379 21.822 7.431V7.431ZM17.307 15H10.667L8.167 9H19.557L17.307 15Z" fill="currentColor"/>
<path d="M10.5 21C11.3284 21 12 20.3284 12 19.5C12 18.6716 11.3284 18 10.5 18C9.67157 18 9 18.6716 9 19.5C9 20.3284 9.67157 21 10.5 21Z" fill="currentColor"/>
<path d="M17.5 21C18.3284 21 19 20.3284 19 19.5C19 18.6716 18.3284 18 17.5 18C16.6716 18 16 18.6716 16 19.5C16 20.3284 16.6716 21 17.5 21Z" fill="currentColor"/>
</symbol>
<symbol id="user" width="1em" height="1em" viewBox="0 0 24 24" fill="none">
<path d="M20.1212 17.8969C19.679 16.8496 19.0374 15.8984 18.2321 15.0961C17.4292 14.2915 16.4781 13.65 15.4313 13.207C15.4219 13.2023 15.4126 13.2 15.4032 13.1953C16.8633 12.1406 17.8126 10.4227 17.8126 8.48438C17.8126 5.27344 15.211 2.67188 12.0001 2.67188C8.78912 2.67188 6.18756 5.27344 6.18756 8.48438C6.18756 10.4227 7.13678 12.1406 8.59693 13.1977C8.58756 13.2023 8.57818 13.2047 8.56881 13.2094C7.51881 13.6523 6.57662 14.2875 5.76803 15.0984C4.96344 15.9013 4.32194 16.8524 3.87896 17.8992C3.44378 18.924 3.20908 20.0228 3.18756 21.1359C3.18693 21.161 3.19132 21.1858 3.20046 21.2091C3.20961 21.2324 3.22332 21.2537 3.24079 21.2716C3.25826 21.2895 3.27915 21.3037 3.30221 21.3134C3.32527 21.3231 3.35004 21.3281 3.37506 21.3281H4.78131C4.88443 21.3281 4.96646 21.2461 4.96881 21.1453C5.01568 19.3359 5.74225 17.6414 7.02662 16.357C8.35553 15.0281 10.1204 14.2969 12.0001 14.2969C13.8797 14.2969 15.6446 15.0281 16.9735 16.357C18.2579 17.6414 18.9844 19.3359 19.0313 21.1453C19.0337 21.2484 19.1157 21.3281 19.2188 21.3281H20.6251C20.6501 21.3281 20.6749 21.3231 20.6979 21.3134C20.721 21.3037 20.7419 21.2895 20.7593 21.2716C20.7768 21.2537 20.7905 21.2324 20.7997 21.2091C20.8088 21.1858 20.8132 21.161 20.8126 21.1359C20.7891 20.0156 20.5571 18.9258 20.1212 17.8969V17.8969ZM12.0001 12.5156C10.9243 12.5156 9.91178 12.0961 9.15006 11.3344C8.38834 10.5727 7.96881 9.56016 7.96881 8.48438C7.96881 7.40859 8.38834 6.39609 9.15006 5.63437C9.91178 4.87266 10.9243 4.45312 12.0001 4.45312C13.0758 4.45312 14.0883 4.87266 14.8501 5.63437C15.6118 6.39609 16.0313 7.40859 16.0313 8.48438C16.0313 9.56016 15.6118 10.5727 14.8501 11.3344C14.0883 12.0961 13.0758 12.5156 12.0001 12.5156Z" fill="currentColor"/>
</symbol>
<symbol id="arrow-left" width="1em" height="1em" viewBox="0 0 32 32" fill="none">
<path d="M14 26L15.41 24.59L7.83 17H28V15H7.83L15.41 7.41L14 6L4 16L14 26Z" fill="currentColor"/>
</symbol>
<symbol id="star-outline" width="1em" height="1em" viewBox="0 0 24 24" fill="none">
<path d="M21.2836 8.27584L15.3328 7.411L12.6726 2.01803C12.6 1.87037 12.4805 1.75084 12.3328 1.67818C11.9625 1.49537 11.5125 1.64771 11.3273 2.01803L8.66717 7.411L2.71639 8.27584C2.55233 8.29928 2.40233 8.37662 2.28748 8.49381C2.14864 8.63651 2.07214 8.8285 2.07477 9.02758C2.07741 9.22666 2.15897 9.41655 2.30155 9.55553L6.60701 13.7532L5.58983 19.6805C5.56597 19.8184 5.58123 19.9602 5.63387 20.0899C5.68651 20.2195 5.77442 20.3318 5.88764 20.4141C6.00086 20.4963 6.13486 20.5452 6.27444 20.5551C6.41401 20.5651 6.55358 20.5357 6.67733 20.4704L12 17.6719L17.3226 20.4704C17.468 20.5477 17.6367 20.5735 17.7984 20.5454C18.2062 20.4751 18.4805 20.0883 18.4101 19.6805L17.393 13.7532L21.6984 9.55553C21.8156 9.44068 21.893 9.29068 21.9164 9.12662C21.9797 8.71646 21.6937 8.33678 21.2836 8.27584V8.27584ZM15.5812 13.1626L16.4273 18.0915L12 15.7665L7.57264 18.0938L8.41873 13.1649L4.83748 9.67271L9.78748 8.95318L12 4.46959L14.2125 8.95318L19.1625 9.67271L15.5812 13.1626Z" fill="currentColor"/>
</symbol>
<symbol id="star-filled" width="1em" height="1em" viewBox="0 0 24 24" fill="none">
<path d="M21.2836 8.27584L15.3328 7.411L12.6726 2.01803C12.6 1.87037 12.4805 1.75084 12.3328 1.67818C11.9625 1.49537 11.5125 1.64771 11.3273 2.01803L8.66717 7.411L2.71639 8.27584C2.55233 8.29928 2.40233 8.37662 2.28748 8.49381C2.14864 8.63651 2.07214 8.8285 2.07477 9.02758C2.07741 9.22666 2.15897 9.41655 2.30155 9.55553L6.60701 13.7532L5.58983 19.6805C5.56597 19.8184 5.58123 19.9602 5.63387 20.0899C5.68651 20.2195 5.77442 20.3318 5.88764 20.4141C6.00086 20.4963 6.13486 20.5452 6.27444 20.5551C6.41401 20.5651 6.55358 20.5357 6.67733 20.4704L12 17.6719L17.3226 20.4704C17.468 20.5477 17.6367 20.5735 17.7984 20.5454C18.2062 20.4751 18.4805 20.0883 18.4101 19.6805L17.393 13.7532L21.6984 9.55553C21.8156 9.44068 21.893 9.29068 21.9164 9.12662C21.9797 8.71646 21.6937 8.33678 21.2836 8.27584V8.27584Z" fill="currentColor"/>
</symbol>
<symbol id="logout" width="1em" height="1em" viewBox="0 0 24 24" fill="none">
<path d="M20.3437 17.1563H18.696C18.5835 17.1563 18.478 17.2055 18.4077 17.2922C18.2437 17.4914 18.0679 17.6836 17.8827 17.8664C17.1254 18.6245 16.2284 19.2286 15.2413 19.6453C14.2186 20.0773 13.1194 20.2989 12.0093 20.2969C10.8866 20.2969 9.79913 20.0766 8.77725 19.6453C7.79013 19.2286 6.89313 18.6245 6.13585 17.8664C5.37721 17.111 4.77229 16.2155 4.3546 15.2297C3.921 14.2078 3.70304 13.1227 3.70304 12C3.70304 10.8774 3.92335 9.79222 4.3546 8.77035C4.77179 7.78363 5.37179 6.89535 6.13585 6.13363C6.89991 5.37191 7.78819 4.77191 8.77725 4.35472C9.79913 3.92347 10.8866 3.70316 12.0093 3.70316C13.1319 3.70316 14.2194 3.92113 15.2413 4.35472C16.2304 4.77191 17.1187 5.37191 17.8827 6.13363C18.0679 6.31879 18.2413 6.51097 18.4077 6.70785C18.478 6.79457 18.5858 6.84379 18.696 6.84379H20.3437C20.4913 6.84379 20.5827 6.67972 20.5007 6.5555C18.703 3.76175 15.5577 1.91254 11.9835 1.92191C6.36788 1.93597 1.86554 6.49457 1.92179 12.1032C1.97804 17.6227 6.47335 22.0782 12.0093 22.0782C15.5741 22.0782 18.7054 20.2313 20.5007 17.4446C20.5804 17.3203 20.4913 17.1563 20.3437 17.1563ZM22.4273 11.8524L19.1015 9.22738C18.9773 9.12894 18.7968 9.218 18.7968 9.37504V11.1563H11.4374C11.3343 11.1563 11.2499 11.2407 11.2499 11.3438V12.6563C11.2499 12.7594 11.3343 12.8438 11.4374 12.8438H18.7968V14.625C18.7968 14.7821 18.9796 14.8711 19.1015 14.7727L22.4273 12.1477C22.4497 12.1302 22.4678 12.1077 22.4803 12.0822C22.4927 12.0566 22.4992 12.0285 22.4992 12C22.4992 11.9716 22.4927 11.9435 22.4803 11.9179C22.4678 11.8923 22.4497 11.8699 22.4273 11.8524V11.8524Z" fill="currentColor"/>
</symbol>
</svg>
